{"title":"Grown Ups 2 TSRip.flv","uid":8735441,"size":567454406,"categoryP":"video","categoryS":"movies","magnet":"?xt=urn:btih:a9aad98997da4b05b3cadf16af09a4c6fc61b712&amp;dn=Grown+Ups+2+TSRip.flv&amp;tr=udp%3A%2F%2Ftracker.openbittorrent.com%3A80&amp;tr=udp%3A%2F%2Fopen.demonii.com%3A1337&amp;tr=udp%3A%2F%2Ftracker.coppersurfer.tk%3A6969&amp;tr=udp%3A%2F%2Fexodus.desync.com%3A6969","seeders":2,"leechers":0,"uploader":"globeplus","files":-1,"time":1374677226,"description":"Grown Ups 2 TSRip.flv\n\n\nPlot :\n\nThree years after the events of Grown Ups, Lenny Feder has relocated his family back to the small town where he and his friends grew up. This time around, the grown ups are the ones learning lessons from their kids on a day notoriously full of surprises, the last day of school. In the beginning, all of them still think that their children are still kids, however throughout the film they begin to accept that their children are growing up.\n\n\nGeneral INFO :\n\nFormat                                   : Flash Video\nFile size                                : 541 MiB\nDuration                                 : 1h 34mn\nOverall bit rate                         : 802 Kbps\nWriting application                      : Encoded By\nTagging application                      : Yet Another Metadata Injector for FLV - Version 1.9\n\nVideo\n\nFormat                                   : AVC\nFormat/Info                              : Advanced Video Codec\nFormat profile                           : &lt;a class=&quot;__cf_email__&quot; href=&quot;/cdn-cgi/l/email-protection&quot; data-cfemail=&quot;95ddfcf2fdd5d9a6bba5&quot;&gt;[email&amp;#160;protected]&lt;/a&gt;&lt;script cf-hash='f9e31' type=&quot;text/javascript&quot;&gt;\n/* &lt;![CDATA[ */!function(){try{var t=&quot;currentScript&quot;in document?document.currentScript:function(){for(var t=document.getElementsByTagName(&quot;script&quot;),e=t.length;e--;)if(t[e].getAttribute(&quot;cf-hash&quot;))return t[e]}();if(t&amp;&amp;t.previousSibling){var e,r,n,i,c=t.previousSibling,a=c.getAttribute(&quot;data-cfemail&quot;);if(a){for(e=&quot;&quot;,r=parseInt(a.substr(0,2),16),n=2;a.length-n;n+=2)i=parseInt(a.substr(n,2),16)^r,e+=String.fromCharCode(i);e=document.createTextNode(e),c.parentNode.replaceChild(e,c)}}}catch(u){}}();/* ]]&gt; */&lt;/script&gt;\nFormat settings, CABAC                   : Yes\nFormat settings, ReFrames                : 4 frames\nCodec ID                                 : 7\nDuration                                 : 1h 34mn\nBit rate                                 : 700 Kbps\nWidth                                    : 640 pixels\nHeight                                   : 352 pixels\nDisplay aspect ratio                     : 16:9\nFrame rate mode                          : Constant\nFrame rate                               : 25.000 fps\nColor space                              : YUV\nChroma subsampling                       : 4:2:0\nBit depth                                : 8 bits\nScan type                                : Progressive\nBits/(Pixel*Frame)                       : 0.124\nStream size                              : 472 MiB (87%)\nWriting library                          : x264 core 128 r2 198a7ea\n\n\nAudio\n\nFormat                                   : AAC\nFormat/Info                              : Advanced Audio Codec\nFormat profile                           : LC\nCodec ID                                 : 10\nDuration                                 : 1h 34mn\nBit rate                                 : 94.4 Kbps\nChannel(s)                               : 2 channels\nChannel positions                        : Front: L R\nSampling rate                            : 44.1 KHz\nCompression mode                         : Lossy\nDelay relative to video                  : 1s 417ms\nStream size                              : 67.7 MiB (13%)\n\n\n\n\n* enjoy ...\n","torrent":{"xt":"urn:btih:a9aad98997da4b05b3cadf16af09a4c6fc61b712","amp;dn":"Grown+Ups+2+TSRip.flv","amp;tr":["udp%3A%2F%2Ftracker.openbittorrent.com%3A80","udp%3A%2F%2Fopen.demonii.com%3A1337","udp%3A%2F%2Ftracker.coppersurfer.tk%3A6969","udp%3A%2F%2Fexodus.desync.com%3A6969"],"infoHash":"a9aad98997da4b05b3cadf16af09a4c6fc61b712","infoHashBuffer":{"type":"Buffer","data":[169,170,217,137,151,218,75,5,179,202,223,22,175,9,164,198,252,97,183,18]},"announce":[],"urlList":[]}}